<svg xmlns="http://www.w3.org/2000/svg" width="243.608" height="242.438" viewBox="0 0 243.608 242.438">
  <defs>
    <style>
      .cls-1 {
        fill: #bc9053;
      }
    </style>
  </defs>
  <path id="box-seam" class="cls-1" d="M124.636,15.854a7.613,7.613,0,0,0-5.664,0L28.106,52.2l36.6,14.632,93.7-37.47-33.77-13.505ZM178.9,37.566,85.2,75.036l36.6,14.632L215.5,52.2Zm49.483,25.883-98.966,39.586V223.652l98.966-39.586V63.464ZM114.191,223.667V103.02L15.226,63.449V184.081ZM113.323,1.71a22.838,22.838,0,0,1,16.961,0L238.827,45.133a7.613,7.613,0,0,1,4.781,7.065V184.081a15.225,15.225,0,0,1-9.577,14.129l-109.4,43.758a7.613,7.613,0,0,1-5.664,0L9.592,198.21A15.226,15.226,0,0,1,0,184.081V52.2a7.612,7.612,0,0,1,4.779-7.064Z" transform="translate(0 -0.077)"/>
</svg>
