<svg id="compass" xmlns="http://www.w3.org/2000/svg" width="243.512" height="263.656" viewBox="0 0 243.512 263.656">
  <defs>
    <style>
      .cls-1 {
        fill: #bc9053;
      }
    </style>
  </defs>
  <g id="Group_10" data-name="Group 10" transform="translate(0 0)">
    <path id="Union_1" data-name="Union 1" class="cls-1" d="M121.758,263.656c-61.021.032-112.634-45.8-120.684-107.178S31.011,37.157,89.923,20.992A16.68,16.68,0,0,1,92.562,6.539,16.161,16.161,0,0,1,105.527,0h32.456A16.142,16.142,0,0,1,150.95,6.539a16.617,16.617,0,0,1,2.637,14.454c58.911,16.164,96.9,74.107,88.851,135.485-8.043,61.36-59.62,107.182-120.62,107.178ZM16.3,140.187c0,59.1,47.209,107,105.457,107s105.455-47.906,105.455-107-47.211-107-105.455-107S16.3,81.089,16.3,140.187Zm88.245-17.716h.019L184.871,75.88l-45.9,81.484-80.31,46.592Z" transform="translate(0 0)"/>
  </g>
</svg>
