<svg xmlns="http://www.w3.org/2000/svg" width="213" height="221" viewBox="0 0 213 221">
  <defs>
    <style>
      .cls-1, .cls-4 {
        fill: #fff;
      }

      .cls-1, .cls-2, .cls-3, .cls-4 {
        stroke: rgba(112,112,112,0.5);
      }

      .cls-1, .cls-3 {
        stroke-width: 3px;
      }

      .cls-2, .cls-3 {
        fill: #97d089;
      }

      .cls-5 {
        stroke: none;
      }

      .cls-6 {
        fill: none;
      }
    </style>
  </defs>
  <g id="Group_2" data-name="Group 2" transform="translate(-597 -414)">
    <g id="A">
      <g id="Rectangle_1" data-name="Rectangle 1" class="cls-1" transform="translate(597 414)">
        <rect class="cls-5" width="142" height="147" rx="10"/>
        <rect class="cls-6" x="1.5" y="1.5" width="139" height="144" rx="8.5"/>
      </g>
      <path id="Subtraction_1" data-name="Subtraction 1" class="cls-2" d="M22.3,88.984H3.98L0,83.191,31.713,0h20.7L81.675,83.191l-3.549,5.792H61.5L55.591,70.9H27.922L22.3,88.983ZM42.1,21.431,32.962,52.256H50.474Z" transform="translate(626.968 441.934)"/>
    </g>
    <g id="_" data-name="&amp;" transform="translate(-81 74)">
      <g id="Rectangle_2" data-name="Rectangle 2" class="cls-3" transform="translate(749 414)">
        <rect class="cls-5" width="142" height="147" rx="10"/>
        <rect class="cls-6" x="1.5" y="1.5" width="139" height="144" rx="8.5"/>
      </g>
      <path id="Path_3" data-name="Path 3" class="cls-4" d="M820,442.484h15.576l1.291,3.134V455.3h33.727l2.3,2.743v12.614l-2.3,2.907h-8.853v6.212l-19,26.556,13.754,9.316.953,4.772-6.758,10.225h-5.981l-16.824-11.713-16.241,11.713h-5.465L798.5,520.424l1.335-4.772,13.978-9.316-10.384-14.193v-4.348l10.384-6.862,4.577.957,9.493,11.65,14.856-19.971h-56l-3.877-2.907V458.047l3.877-2.743h31.648V445.27Z" transform="translate(-8)"/>
    </g>
  </g>
</svg>
