<svg xmlns="http://www.w3.org/2000/svg" width="512" height="512" viewBox="0 0 512 512">
  <defs>
    <style>
      .cls-1, .cls-2, .cls-5 {
        fill: #fff;
      }

      .cls-2, .cls-3, .cls-4, .cls-5 {
        stroke: rgba(112,112,112,0.5);
      }

      .cls-2, .cls-4 {
        stroke-width: 3px;
      }

      .cls-3, .cls-4 {
        fill: #97d089;
      }

      .cls-6 {
        stroke: none;
      }

      .cls-7 {
        fill: none;
      }
    </style>
  </defs>
  <g id="Group_3" data-name="Group 3" transform="translate(-98 -308)">
    <circle id="Ellipse_3" data-name="Ellipse 3" class="cls-1" cx="256" cy="256" r="256" transform="translate(98 308)"/>
    <g id="Group_2" data-name="Group 2" transform="translate(-407.093 -7.787)">
      <g id="A" transform="translate(597 414)">
        <g id="Rectangle_1" data-name="Rectangle 1" class="cls-2" transform="translate(0.093 -0.213)">
          <rect class="cls-6" width="202" height="209" rx="10"/>
          <rect class="cls-7" x="1.5" y="1.5" width="199" height="206" rx="8.5"/>
        </g>
        <path id="Subtraction_1" data-name="Subtraction 1" class="cls-3" d="M31.741,126.661H5.665L0,118.415,45.141,0H74.6l41.653,118.415-5.052,8.244H87.539l-8.41-25.742H39.745l-8,25.742ZM59.927,30.5,46.918,74.382H71.845Z" transform="translate(42.657 39.761)"/>
      </g>
      <g id="_" data-name="&amp;" transform="translate(698.062 519.333)">
        <g id="Rectangle_2" data-name="Rectangle 2" class="cls-4" transform="translate(0.031 0.455)">
          <rect class="cls-6" width="202" height="209" rx="10"/>
          <rect class="cls-7" x="1.5" y="1.5" width="199" height="206" rx="8.5"/>
        </g>
        <path id="Path_3" data-name="Path 3" class="cls-5" d="M835.722,442.484h22.171l1.838,4.461v13.787h48.008l3.279,3.9v17.956l-3.279,4.137h-12.6v8.842l-27.043,37.8,19.578,13.261,1.357,6.793-9.62,14.554H870.9l-23.948-16.673-23.117,16.673h-7.779l-10.928-14.554,1.9-6.793,19.9-13.261-14.78-20.2V506.98l14.78-9.767,6.514,1.362,13.512,16.583,21.146-28.427H788.388l-5.519-4.137V464.637l5.519-3.9h45.049V446.45Z" transform="translate(-746.047 -401.94)"/>
      </g>
    </g>
  </g>
</svg>
